<mxfile host="app.diagrams.net" modified="2023-05-31T09:14:42.188Z" agent="Mozilla/5.0 (Windows NT 10.0; Win64; x64) AppleWebKit/537.36 (KHTML, like Gecko) Chrome/113.0.0.0 Safari/537.36" etag="CMXfaDgmEfD0kU6j-kQy" version="21.3.6" type="device">
  <diagram id="C5RBs43oDa-KdzZeNtuy" name="Page-1">
    <mxGraphModel dx="1896" dy="1825" grid="1" gridSize="10" guides="1" tooltips="1" connect="1" arrows="1" fold="1" page="1" pageScale="1" pageWidth="827" pageHeight="1169" math="0" shadow="0">
      <root>
        <mxCell id="WIyWlLk6GJQsqaUBKTNV-0" />
        <mxCell id="WIyWlLk6GJQsqaUBKTNV-1" parent="WIyWlLk6GJQsqaUBKTNV-0" />
        <mxCell id="zkfFHV4jXpPFQw0GAbJ--6" value="Player" style="swimlane;fontStyle=0;align=center;verticalAlign=top;childLayout=stackLayout;horizontal=1;startSize=26;horizontalStack=0;resizeParent=1;resizeLast=0;collapsible=1;marginBottom=0;rounded=0;shadow=0;strokeWidth=1;labelBackgroundColor=none;fillColor=#FAE5C7;strokeColor=#0F8B8D;fontColor=#143642;" parent="WIyWlLk6GJQsqaUBKTNV-1" vertex="1">
          <mxGeometry x="740" y="380" width="270" height="180" as="geometry">
            <mxRectangle x="130" y="380" width="160" height="26" as="alternateBounds" />
          </mxGeometry>
        </mxCell>
        <mxCell id="zkfFHV4jXpPFQw0GAbJ--7" value="- name: String&#xa;- myBlocks: ArrayList " style="text;align=left;verticalAlign=top;spacingLeft=4;spacingRight=4;overflow=hidden;rotatable=0;points=[[0,0.5],[1,0.5]];portConstraint=eastwest;labelBackgroundColor=none;fontColor=#143642;" parent="zkfFHV4jXpPFQw0GAbJ--6" vertex="1">
          <mxGeometry y="26" width="270" height="44" as="geometry" />
        </mxCell>
        <mxCell id="zkfFHV4jXpPFQw0GAbJ--9" value="" style="line;html=1;strokeWidth=1;align=left;verticalAlign=middle;spacingTop=-1;spacingLeft=3;spacingRight=3;rotatable=0;labelPosition=right;points=[];portConstraint=eastwest;labelBackgroundColor=none;fillColor=#FAE5C7;strokeColor=#0F8B8D;fontColor=#143642;" parent="zkfFHV4jXpPFQw0GAbJ--6" vertex="1">
          <mxGeometry y="70" width="270" height="8" as="geometry" />
        </mxCell>
        <mxCell id="zkfFHV4jXpPFQw0GAbJ--10" value="+ enterance(): boolean&#xa;+ pickFirst(ArrayList&lt;Integer&gt;): 4개를 선택&#xa;+ pickOne():&#xa;+ sort(); void&#xa;" style="text;align=left;verticalAlign=top;spacingLeft=4;spacingRight=4;overflow=hidden;rotatable=0;points=[[0,0.5],[1,0.5]];portConstraint=eastwest;fontStyle=4;labelBackgroundColor=none;fontColor=#143642;" parent="zkfFHV4jXpPFQw0GAbJ--6" vertex="1">
          <mxGeometry y="78" width="270" height="84" as="geometry" />
        </mxCell>
        <mxCell id="zkfFHV4jXpPFQw0GAbJ--12" value="" style="endArrow=block;endSize=10;endFill=0;shadow=0;strokeWidth=1;rounded=0;edgeStyle=elbowEdgeStyle;elbow=vertical;labelBackgroundColor=none;strokeColor=#A8201A;fontColor=default;" parent="WIyWlLk6GJQsqaUBKTNV-1" source="zkfFHV4jXpPFQw0GAbJ--6" edge="1">
          <mxGeometry width="160" relative="1" as="geometry">
            <mxPoint x="860" y="223" as="sourcePoint" />
            <mxPoint x="950" y="278" as="targetPoint" />
          </mxGeometry>
        </mxCell>
        <mxCell id="zkfFHV4jXpPFQw0GAbJ--16" value="" style="endArrow=block;endSize=10;endFill=0;shadow=0;strokeWidth=1;rounded=0;edgeStyle=elbowEdgeStyle;elbow=vertical;exitX=0.5;exitY=0;exitDx=0;exitDy=0;labelBackgroundColor=none;strokeColor=#A8201A;fontColor=default;" parent="WIyWlLk6GJQsqaUBKTNV-1" source="RgBC2ElhwGX1uOeUyDEs-10" edge="1">
          <mxGeometry width="160" relative="1" as="geometry">
            <mxPoint x="1070" y="380" as="sourcePoint" />
            <mxPoint x="950" y="278" as="targetPoint" />
          </mxGeometry>
        </mxCell>
        <mxCell id="RgBC2ElhwGX1uOeUyDEs-0" value="CalmModerator" style="swimlane;fontStyle=0;align=center;verticalAlign=top;childLayout=stackLayout;horizontal=1;startSize=26;horizontalStack=0;resizeParent=1;resizeLast=0;collapsible=1;marginBottom=0;rounded=0;shadow=0;strokeWidth=1;labelBackgroundColor=none;fillColor=#FAE5C7;strokeColor=#0F8B8D;fontColor=#143642;" vertex="1" parent="WIyWlLk6GJQsqaUBKTNV-1">
          <mxGeometry x="1370" y="620" width="210" height="160" as="geometry">
            <mxRectangle x="340" y="380" width="170" height="26" as="alternateBounds" />
          </mxGeometry>
        </mxCell>
        <mxCell id="RgBC2ElhwGX1uOeUyDEs-2" value="" style="line;html=1;strokeWidth=1;align=left;verticalAlign=middle;spacingTop=-1;spacingLeft=3;spacingRight=3;rotatable=0;labelPosition=right;points=[];portConstraint=eastwest;labelBackgroundColor=none;fillColor=#FAE5C7;strokeColor=#0F8B8D;fontColor=#143642;" vertex="1" parent="RgBC2ElhwGX1uOeUyDEs-0">
          <mxGeometry y="26" width="210" height="8" as="geometry" />
        </mxCell>
        <mxCell id="RgBC2ElhwGX1uOeUyDEs-16" value="+ enterance(String, String): void&#xa;+ guideFirstTurn(): void&#xa;+ guidePick(String): void&#xa;+ guideGuess(String): void&#xa;+ guideCorrect(String, String); void&#xa;+ guideWrong(String): void&#xa;+ guideEnd(String): void" style="text;align=left;verticalAlign=top;spacingLeft=4;spacingRight=4;overflow=hidden;rotatable=0;points=[[0,0.5],[1,0.5]];portConstraint=eastwest;labelBackgroundColor=none;fontColor=#143642;" vertex="1" parent="RgBC2ElhwGX1uOeUyDEs-0">
          <mxGeometry y="34" width="210" height="126" as="geometry" />
        </mxCell>
        <mxCell id="RgBC2ElhwGX1uOeUyDEs-3" value="ActiveModerator" style="swimlane;fontStyle=0;align=center;verticalAlign=top;childLayout=stackLayout;horizontal=1;startSize=26;horizontalStack=0;resizeParent=1;resizeLast=0;collapsible=1;marginBottom=0;rounded=0;shadow=0;strokeWidth=1;labelBackgroundColor=none;fillColor=#FAE5C7;strokeColor=#0F8B8D;fontColor=#143642;" vertex="1" parent="WIyWlLk6GJQsqaUBKTNV-1">
          <mxGeometry x="1050" y="610" width="210" height="160" as="geometry">
            <mxRectangle x="340" y="380" width="170" height="26" as="alternateBounds" />
          </mxGeometry>
        </mxCell>
        <mxCell id="RgBC2ElhwGX1uOeUyDEs-5" value="" style="line;html=1;strokeWidth=1;align=left;verticalAlign=middle;spacingTop=-1;spacingLeft=3;spacingRight=3;rotatable=0;labelPosition=right;points=[];portConstraint=eastwest;labelBackgroundColor=none;fillColor=#FAE5C7;strokeColor=#0F8B8D;fontColor=#143642;" vertex="1" parent="RgBC2ElhwGX1uOeUyDEs-3">
          <mxGeometry y="26" width="210" height="8" as="geometry" />
        </mxCell>
        <mxCell id="RgBC2ElhwGX1uOeUyDEs-4" value="+ enterance(String, String): void&#xa;+ guideFirstTurn(): void&#xa;+ guidePick(String): void&#xa;+ guideGuess(String): void&#xa;+ guideCorrect(String, String); void&#xa;+ guideWrong(String): void&#xa;+ guideEnd(String): void" style="text;align=left;verticalAlign=top;spacingLeft=4;spacingRight=4;overflow=hidden;rotatable=0;points=[[0,0.5],[1,0.5]];portConstraint=eastwest;labelBackgroundColor=none;fontColor=#143642;" vertex="1" parent="RgBC2ElhwGX1uOeUyDEs-3">
          <mxGeometry y="34" width="210" height="126" as="geometry" />
        </mxCell>
        <mxCell id="RgBC2ElhwGX1uOeUyDEs-10" value="&lt;p style=&quot;margin:0px;margin-top:4px;text-align:center;&quot;&gt;&lt;i&gt;&amp;lt;&amp;lt;abstract&amp;gt;&amp;gt;&lt;/i&gt;&lt;br&gt;Moderator&lt;br&gt;&lt;/p&gt;&lt;hr size=&quot;1&quot;&gt;&lt;p style=&quot;margin:0px;margin-left:4px;&quot;&gt;- personality: String&lt;br&gt;&lt;/p&gt;&lt;hr size=&quot;1&quot;&gt;&lt;p style=&quot;margin:0px;margin-left:4px;&quot;&gt;+ enterance(String, String): boolean&amp;nbsp;{abstract}&lt;/p&gt;&lt;p style=&quot;margin:0px;margin-left:4px;&quot;&gt;+ guideFirstTurn(): void {abstract}&lt;/p&gt;&lt;p style=&quot;margin:0px;margin-left:4px;&quot;&gt;+ guidePick(String): void {abstract}&lt;/p&gt;&lt;p style=&quot;margin:0px;margin-left:4px;&quot;&gt;+ guideGuess(String): void {abstract}&lt;/p&gt;&lt;p style=&quot;margin:0px;margin-left:4px;&quot;&gt;+ guideCorrect(String, String); void {abstract}&lt;/p&gt;&lt;p style=&quot;margin:0px;margin-left:4px;&quot;&gt;+ guideWrong(String): void {abstract}&lt;/p&gt;&lt;p style=&quot;margin:0px;margin-left:4px;&quot;&gt;+ guideEnd(String): void {abstract}&lt;/p&gt;&lt;p style=&quot;margin:0px;margin-left:4px;&quot;&gt;+ judge(ArrayList[Int], Int, Int)&amp;nbsp;&lt;/p&gt;" style="verticalAlign=top;align=left;overflow=fill;fontSize=12;fontFamily=Helvetica;html=1;whiteSpace=wrap;labelBackgroundColor=none;fillColor=#FAE5C7;strokeColor=#0F8B8D;fontColor=#143642;" vertex="1" parent="WIyWlLk6GJQsqaUBKTNV-1">
          <mxGeometry x="1150" y="370" width="320" height="210" as="geometry" />
        </mxCell>
        <mxCell id="RgBC2ElhwGX1uOeUyDEs-12" value="" style="endArrow=block;dashed=1;endFill=0;endSize=12;html=1;rounded=0;fontSize=12;curved=1;entryX=0.5;entryY=1;entryDx=0;entryDy=0;exitX=0.5;exitY=0;exitDx=0;exitDy=0;labelBackgroundColor=none;strokeColor=#A8201A;fontColor=default;" edge="1" parent="WIyWlLk6GJQsqaUBKTNV-1" source="RgBC2ElhwGX1uOeUyDEs-0" target="RgBC2ElhwGX1uOeUyDEs-10">
          <mxGeometry width="160" relative="1" as="geometry">
            <mxPoint x="1180" y="540" as="sourcePoint" />
            <mxPoint x="1340" y="540" as="targetPoint" />
          </mxGeometry>
        </mxCell>
        <mxCell id="RgBC2ElhwGX1uOeUyDEs-13" value="" style="endArrow=block;dashed=1;endFill=0;endSize=12;html=1;rounded=0;fontSize=12;curved=1;exitX=0.5;exitY=0;exitDx=0;exitDy=0;entryX=0.5;entryY=1;entryDx=0;entryDy=0;labelBackgroundColor=none;strokeColor=#A8201A;fontColor=default;" edge="1" parent="WIyWlLk6GJQsqaUBKTNV-1" source="RgBC2ElhwGX1uOeUyDEs-3" target="RgBC2ElhwGX1uOeUyDEs-10">
          <mxGeometry width="160" relative="1" as="geometry">
            <mxPoint x="1180" y="540" as="sourcePoint" />
            <mxPoint x="1340" y="540" as="targetPoint" />
          </mxGeometry>
        </mxCell>
        <mxCell id="RgBC2ElhwGX1uOeUyDEs-18" value="Game" style="swimlane;fontStyle=2;align=center;verticalAlign=top;childLayout=stackLayout;horizontal=1;startSize=26;horizontalStack=0;resizeParent=1;resizeLast=0;collapsible=1;marginBottom=0;rounded=0;shadow=0;strokeWidth=1;labelBackgroundColor=none;fillColor=#FAE5C7;strokeColor=#0F8B8D;fontColor=#143642;" vertex="1" parent="WIyWlLk6GJQsqaUBKTNV-1">
          <mxGeometry x="190" y="470" width="240" height="310" as="geometry">
            <mxRectangle x="230" y="140" width="160" height="26" as="alternateBounds" />
          </mxGeometry>
        </mxCell>
        <mxCell id="RgBC2ElhwGX1uOeUyDEs-38" value="- player1: Player&#xa;- player2: Player&#xa;- moderator: Moderator&#xa;- blockGenerator: BlockGenerator&#xa;" style="text;align=left;verticalAlign=top;spacingLeft=4;spacingRight=4;overflow=hidden;rotatable=0;points=[[0,0.5],[1,0.5]];portConstraint=eastwest;labelBackgroundColor=none;fontColor=#143642;" vertex="1" parent="RgBC2ElhwGX1uOeUyDEs-18">
          <mxGeometry y="26" width="240" height="74" as="geometry" />
        </mxCell>
        <mxCell id="RgBC2ElhwGX1uOeUyDEs-20" value="" style="line;html=1;strokeWidth=1;align=left;verticalAlign=middle;spacingTop=-1;spacingLeft=3;spacingRight=3;rotatable=0;labelPosition=right;points=[];portConstraint=eastwest;labelBackgroundColor=none;fillColor=#FAE5C7;strokeColor=#0F8B8D;fontColor=#143642;" vertex="1" parent="RgBC2ElhwGX1uOeUyDEs-18">
          <mxGeometry y="100" width="240" height="8" as="geometry" />
        </mxCell>
        <mxCell id="RgBC2ElhwGX1uOeUyDEs-22" value="+ enterPlayer(): &#xa;+ selectModerator()&#xa;+ firstTurn(): ArrayList&lt;Integer&gt;&#xa;+ pickOne()&#xa;+ guess(Player, Player, int, int)&#xa;+ correct()&#xa;+ openOpponentBlock()&#xa;+ stopOrGoing()&#xa;+ wrong()&#xa;+ openMineBlock()&#xa;+ checkNotOpen()&#xa;+ askContinue()" style="text;align=left;verticalAlign=top;spacingLeft=4;spacingRight=4;overflow=hidden;rotatable=0;points=[[0,0.5],[1,0.5]];portConstraint=eastwest;labelBackgroundColor=none;fontColor=#000000;" vertex="1" parent="RgBC2ElhwGX1uOeUyDEs-18">
          <mxGeometry y="108" width="240" height="202" as="geometry" />
        </mxCell>
        <mxCell id="RgBC2ElhwGX1uOeUyDEs-23" value="Block" style="swimlane;fontStyle=2;align=center;verticalAlign=top;childLayout=stackLayout;horizontal=1;startSize=26;horizontalStack=0;resizeParent=1;resizeLast=0;collapsible=1;marginBottom=0;rounded=0;shadow=0;strokeWidth=1;labelBackgroundColor=none;fillColor=#FAE5C7;strokeColor=#0F8B8D;fontColor=#143642;" vertex="1" parent="WIyWlLk6GJQsqaUBKTNV-1">
          <mxGeometry x="760" y="840" width="230" height="170" as="geometry">
            <mxRectangle x="230" y="140" width="160" height="26" as="alternateBounds" />
          </mxGeometry>
        </mxCell>
        <mxCell id="RgBC2ElhwGX1uOeUyDEs-24" value="- min: final Int 0&#xa;- max: final Int 11&#xa;- firstPickRange: final Int 4&#xa;- blocks: ArrayList&lt;Integer&gt;" style="text;align=left;verticalAlign=top;spacingLeft=4;spacingRight=4;overflow=hidden;rotatable=0;points=[[0,0.5],[1,0.5]];portConstraint=eastwest;labelBackgroundColor=none;fontColor=#143642;" vertex="1" parent="RgBC2ElhwGX1uOeUyDEs-23">
          <mxGeometry y="26" width="230" height="64" as="geometry" />
        </mxCell>
        <mxCell id="RgBC2ElhwGX1uOeUyDEs-25" value="" style="line;html=1;strokeWidth=1;align=left;verticalAlign=middle;spacingTop=-1;spacingLeft=3;spacingRight=3;rotatable=0;labelPosition=right;points=[];portConstraint=eastwest;labelBackgroundColor=none;fillColor=#FAE5C7;strokeColor=#0F8B8D;fontColor=#143642;" vertex="1" parent="RgBC2ElhwGX1uOeUyDEs-23">
          <mxGeometry y="90" width="230" height="8" as="geometry" />
        </mxCell>
        <mxCell id="RgBC2ElhwGX1uOeUyDEs-26" value="+ generateFirst(): ArrayList&#xa;+ generateOne(): Int&#xa;+ getter(): ArrayList&lt;Integer&gt;&#xa;+ setter(): " style="text;align=left;verticalAlign=top;spacingLeft=4;spacingRight=4;overflow=hidden;rotatable=0;points=[[0,0.5],[1,0.5]];portConstraint=eastwest;labelBackgroundColor=none;fontColor=#143642;" vertex="1" parent="RgBC2ElhwGX1uOeUyDEs-23">
          <mxGeometry y="98" width="230" height="42" as="geometry" />
        </mxCell>
        <mxCell id="RgBC2ElhwGX1uOeUyDEs-29" value="&lt;ol&gt;&lt;li&gt;&lt;span style=&quot;font-size: 12px; background-color: initial;&quot;&gt;enterPlayer() : Player name 입력 받기&lt;/span&gt;&lt;/li&gt;&lt;li&gt;&lt;span style=&quot;font-size: 12px; background-color: initial;&quot;&gt;selectModerator(): 사회자 선택&lt;/span&gt;&lt;/li&gt;&lt;li&gt;&lt;span style=&quot;font-size: 12px; background-color: initial;&quot;&gt;firstTurn(): Player별 4개의 초기 블록 선택(사회자의 guideFirstTurn() 호출)&lt;/span&gt;&lt;/li&gt;&lt;li&gt;&lt;span style=&quot;font-size: 12px; background-color: initial;&quot;&gt;pickOne(): 블록 하나 뽑기&lt;/span&gt;&lt;/li&gt;&lt;li&gt;&lt;span style=&quot;font-size: 12px; background-color: initial;&quot;&gt;guess(): 상대 블록 추측하기&lt;/span&gt;&lt;/li&gt;&lt;li&gt;&lt;span style=&quot;font-size: 12px; background-color: initial;&quot;&gt;correct(): 맞으면&lt;/span&gt;&lt;/li&gt;&lt;li&gt;&lt;span style=&quot;font-size: 12px; background-color: initial;&quot;&gt;&lt;span style=&quot;white-space: pre;&quot;&gt;&#x9;&lt;/span&gt;openOpponentBlock(): 상대방이 해당 블록 공개(ArrayList에서 삭제)&lt;/span&gt;&lt;/li&gt;&lt;li&gt;&lt;span style=&quot;font-size: 12px; background-color: initial;&quot;&gt;&lt;span style=&quot;white-space: pre;&quot;&gt;&#x9;&lt;/span&gt;&lt;span style=&quot;white-space: pre;&quot;&gt;&#x9;&lt;/span&gt;stopOrGoing(): 계속 진행할 지 결정&lt;/span&gt;&lt;/li&gt;&lt;li&gt;&lt;span style=&quot;font-size: 12px; background-color: initial;&quot;&gt;&lt;span style=&quot;white-space: pre;&quot;&gt;&#x9;&lt;/span&gt;&lt;span style=&quot;white-space: pre;&quot;&gt;&#x9;&lt;/span&gt;&lt;span style=&quot;white-space: pre;&quot;&gt;&#x9;&lt;/span&gt;계속 한다고 선택하면 5번으로 돌아가기&amp;nbsp;&lt;/span&gt;&lt;/li&gt;&lt;li&gt;&lt;span style=&quot;font-size: 12px; background-color: initial;&quot;&gt;&amp;nbsp; &amp;nbsp; &amp;nbsp; &amp;nbsp; &amp;nbsp; &amp;nbsp; &amp;nbsp; &amp;nbsp; &amp;nbsp; &amp;nbsp; &amp;nbsp; &amp;nbsp; 계속 안한다고 선택하면 상대방에게 턴 넘기기 skip&lt;/span&gt;&lt;/li&gt;&lt;li&gt;&lt;span style=&quot;font-size: 12px;&quot;&gt;wrong(): 틀리면&lt;/span&gt;&lt;/li&gt;&lt;li&gt;&lt;span style=&quot;font-size: 12px;&quot;&gt;&amp;nbsp; &amp;nbsp; &amp;nbsp; &amp;nbsp; &amp;nbsp;openMineBlock(): 4번에서 가져온 블록 공개하고, 상대방에게 턴 넘기기&lt;/span&gt;&lt;/li&gt;&lt;li&gt;&lt;span style=&quot;font-size: 12px;&quot;&gt;checkNotOpen(): 4번부터 12번의 과정을 한 플레이어의 모든 패가 공개될때까지 반복(=ArrayList.size = 0)&lt;/span&gt;&lt;/li&gt;&lt;li&gt;&lt;font style=&quot;font-size: 12px;&quot;&gt;askContinue(): 사회자의 guideEnd()를 호출해서, 새로운 판을 다시 시작할지 말지 Player1에게 물어본다.&lt;/font&gt;&lt;/li&gt;&lt;li&gt;&lt;font style=&quot;font-size: 12px;&quot;&gt;&amp;nbsp; &amp;nbsp; &amp;nbsp; &amp;nbsp; &amp;nbsp; &amp;nbsp; &amp;nbsp; yes를 선택하면 상대방이 죽어서 게임 못한다고 말하고 종료&lt;/font&gt;&lt;/li&gt;&lt;li&gt;&lt;font style=&quot;font-size: 12px;&quot;&gt;&amp;nbsp; &amp;nbsp; &amp;nbsp; &amp;nbsp; &amp;nbsp; &amp;nbsp; &amp;nbsp; no를 선택하면 수고했다고 하고 종료&amp;nbsp;&lt;/font&gt;&lt;/li&gt;&lt;/ol&gt;&lt;span style=&quot;font-size: 12px; background-color: initial;&quot;&gt;&lt;br&gt;&lt;/span&gt;" style="text;html=1;strokeColor=none;fillColor=none;align=left;verticalAlign=middle;whiteSpace=wrap;rounded=0;fontSize=16;fontColor=#143642;" vertex="1" parent="WIyWlLk6GJQsqaUBKTNV-1">
          <mxGeometry x="170" y="-195" width="630" height="310" as="geometry" />
        </mxCell>
        <mxCell id="RgBC2ElhwGX1uOeUyDEs-30" value="" style="shape=partialRectangle;whiteSpace=wrap;html=1;bottom=1;right=1;left=1;top=0;fillColor=none;routingCenterX=-0.5;strokeColor=#0F8B8D;fontSize=16;fontColor=#143642;rotation=90;" vertex="1" parent="WIyWlLk6GJQsqaUBKTNV-1">
          <mxGeometry x="130" y="-200" width="50" height="60" as="geometry" />
        </mxCell>
        <mxCell id="RgBC2ElhwGX1uOeUyDEs-31" value="startGame()" style="text;html=1;strokeColor=none;fillColor=none;align=center;verticalAlign=middle;whiteSpace=wrap;rounded=0;fontSize=16;fontColor=#143642;" vertex="1" parent="WIyWlLk6GJQsqaUBKTNV-1">
          <mxGeometry x="50" y="-185" width="60" height="30" as="geometry" />
        </mxCell>
        <mxCell id="RgBC2ElhwGX1uOeUyDEs-32" value="" style="shape=partialRectangle;whiteSpace=wrap;html=1;bottom=1;right=1;left=1;top=0;fillColor=none;routingCenterX=-0.5;strokeColor=#0F8B8D;fontSize=16;fontColor=#143642;rotation=90;" vertex="1" parent="WIyWlLk6GJQsqaUBKTNV-1">
          <mxGeometry x="65" y="-75" width="180" height="60" as="geometry" />
        </mxCell>
        <mxCell id="RgBC2ElhwGX1uOeUyDEs-33" value="playGame()" style="text;html=1;strokeColor=none;fillColor=none;align=center;verticalAlign=middle;whiteSpace=wrap;rounded=0;fontSize=16;fontColor=#143642;" vertex="1" parent="WIyWlLk6GJQsqaUBKTNV-1">
          <mxGeometry x="50" y="-75" width="60" height="30" as="geometry" />
        </mxCell>
        <mxCell id="RgBC2ElhwGX1uOeUyDEs-35" value="endGame()" style="text;html=1;strokeColor=none;fillColor=none;align=center;verticalAlign=middle;whiteSpace=wrap;rounded=0;fontSize=16;fontColor=#143642;" vertex="1" parent="WIyWlLk6GJQsqaUBKTNV-1">
          <mxGeometry x="50" y="58.75" width="60" height="30" as="geometry" />
        </mxCell>
        <mxCell id="RgBC2ElhwGX1uOeUyDEs-36" value="" style="shape=partialRectangle;whiteSpace=wrap;html=1;bottom=1;right=1;left=1;top=0;fillColor=none;routingCenterX=-0.5;strokeColor=#0F8B8D;fontSize=16;fontColor=#143642;rotation=90;" vertex="1" parent="WIyWlLk6GJQsqaUBKTNV-1">
          <mxGeometry x="133.75" y="43.75" width="42.5" height="60" as="geometry" />
        </mxCell>
        <mxCell id="RgBC2ElhwGX1uOeUyDEs-41" value="" style="endArrow=classic;html=1;rounded=0;strokeColor=#A8201A;fontSize=12;fontColor=#143642;startSize=8;endSize=8;fillColor=#FAE5C7;dashed=1;entryX=-0.004;entryY=0.154;entryDx=0;entryDy=0;exitX=0.995;exitY=0.069;exitDx=0;exitDy=0;exitPerimeter=0;entryPerimeter=0;" edge="1" parent="WIyWlLk6GJQsqaUBKTNV-1" source="RgBC2ElhwGX1uOeUyDEs-18" target="zkfFHV4jXpPFQw0GAbJ--7">
          <mxGeometry width="50" height="50" relative="1" as="geometry">
            <mxPoint x="440" y="460" as="sourcePoint" />
            <mxPoint x="590" y="480" as="targetPoint" />
            <Array as="points" />
          </mxGeometry>
        </mxCell>
        <mxCell id="RgBC2ElhwGX1uOeUyDEs-44" value="" style="endArrow=classic;html=1;rounded=0;strokeColor=#A8201A;fontSize=12;fontColor=#143642;startSize=8;endSize=8;fillColor=#FAE5C7;curved=1;dashed=1;exitX=1.042;exitY=0.172;exitDx=0;exitDy=0;entryX=-0.009;entryY=0.802;entryDx=0;entryDy=0;entryPerimeter=0;exitPerimeter=0;" edge="1" parent="WIyWlLk6GJQsqaUBKTNV-1" source="RgBC2ElhwGX1uOeUyDEs-22" target="RgBC2ElhwGX1uOeUyDEs-24">
          <mxGeometry width="50" height="50" relative="1" as="geometry">
            <mxPoint x="590" y="718" as="sourcePoint" />
            <mxPoint x="1010" y="490" as="targetPoint" />
          </mxGeometry>
        </mxCell>
        <mxCell id="RgBC2ElhwGX1uOeUyDEs-46" value="&lt;p style=&quot;margin:0px;margin-top:4px;text-align:center;&quot;&gt;&lt;i&gt;&amp;lt;&amp;lt;Interface&amp;gt;&amp;gt;&lt;/i&gt;&lt;br&gt;&lt;b&gt;Person&lt;/b&gt;&lt;/p&gt;&lt;hr size=&quot;1&quot;&gt;&lt;p style=&quot;margin:0px;margin-left:4px;&quot;&gt;&lt;/p&gt;&lt;p style=&quot;margin:0px;margin-left:4px;&quot;&gt;+ enterance(): boolean&lt;/p&gt;" style="verticalAlign=top;align=left;overflow=fill;fontSize=12;fontFamily=Helvetica;html=1;whiteSpace=wrap;strokeColor=#0F8B8D;fontColor=#143642;fillColor=#FAE5C7;" vertex="1" parent="WIyWlLk6GJQsqaUBKTNV-1">
          <mxGeometry x="870" y="210" width="190" height="70" as="geometry" />
        </mxCell>
        <mxCell id="RgBC2ElhwGX1uOeUyDEs-47" value="&lt;font style=&quot;font-size: 12px;&quot;&gt;enterance() : 사회자는 룰 설명, 플레이어는 룰을 이해했다는 내용 출력&lt;/font&gt;" style="text;html=1;strokeColor=none;fillColor=none;align=center;verticalAlign=middle;whiteSpace=wrap;rounded=0;fontSize=16;fontColor=#143642;" vertex="1" parent="WIyWlLk6GJQsqaUBKTNV-1">
          <mxGeometry x="1090" y="240" width="210" height="30" as="geometry" />
        </mxCell>
        <mxCell id="RgBC2ElhwGX1uOeUyDEs-48" value="&lt;span style=&quot;font-size: 12px;&quot;&gt;generateFirst() : Random 2번 돌린다. 한 번은 흑백을 결정하는 0, 1 중 하나를 선택하는 것. 다른 하나는 0~11 사이의 정수형 숫자 하나를 선택하는 것. 선택된 블록은&amp;nbsp;&lt;/span&gt;" style="text;html=1;strokeColor=none;fillColor=none;align=center;verticalAlign=middle;whiteSpace=wrap;rounded=0;fontSize=16;fontColor=#143642;" vertex="1" parent="WIyWlLk6GJQsqaUBKTNV-1">
          <mxGeometry x="740" y="1070" width="210" height="30" as="geometry" />
        </mxCell>
        <mxCell id="RgBC2ElhwGX1uOeUyDEs-49" value="&lt;font style=&quot;font-size: 12px;&quot;&gt;enterance() : 사회자는 룰 설명, 플레이어는 룰을 이해했다는 내용 출력&lt;/font&gt;" style="text;html=1;strokeColor=none;fillColor=none;align=center;verticalAlign=middle;whiteSpace=wrap;rounded=0;fontSize=16;fontColor=#143642;" vertex="1" parent="WIyWlLk6GJQsqaUBKTNV-1">
          <mxGeometry x="767" y="570" width="210" height="30" as="geometry" />
        </mxCell>
        <mxCell id="RgBC2ElhwGX1uOeUyDEs-50" value="blockGenerator.generateFirst() 호출" style="text;html=1;strokeColor=none;fillColor=none;align=center;verticalAlign=middle;whiteSpace=wrap;rounded=0;fontSize=16;fontColor=#143642;" vertex="1" parent="WIyWlLk6GJQsqaUBKTNV-1">
          <mxGeometry x="-140" y="600" width="300" height="30" as="geometry" />
        </mxCell>
        <mxCell id="RgBC2ElhwGX1uOeUyDEs-51" value="" style="endArrow=classic;html=1;rounded=0;strokeColor=#A8201A;fontSize=12;fontColor=#143642;startSize=8;endSize=8;fillColor=#FAE5C7;curved=1;exitX=1;exitY=0.5;exitDx=0;exitDy=0;" edge="1" parent="WIyWlLk6GJQsqaUBKTNV-1" source="RgBC2ElhwGX1uOeUyDEs-50">
          <mxGeometry width="50" height="50" relative="1" as="geometry">
            <mxPoint x="170" y="650" as="sourcePoint" />
            <mxPoint x="200" y="620" as="targetPoint" />
          </mxGeometry>
        </mxCell>
        <mxCell id="RgBC2ElhwGX1uOeUyDEs-52" value="" style="endArrow=classic;html=1;rounded=0;strokeColor=#A8201A;fontSize=12;fontColor=#143642;startSize=8;endSize=8;fillColor=#FAE5C7;dashed=1;exitX=1.006;exitY=0.125;exitDx=0;exitDy=0;exitPerimeter=0;" edge="1" parent="WIyWlLk6GJQsqaUBKTNV-1" source="RgBC2ElhwGX1uOeUyDEs-38" target="RgBC2ElhwGX1uOeUyDEs-10">
          <mxGeometry width="50" height="50" relative="1" as="geometry">
            <mxPoint x="499" y="254" as="sourcePoint" />
            <mxPoint x="749" y="423" as="targetPoint" />
            <Array as="points" />
          </mxGeometry>
        </mxCell>
      </root>
    </mxGraphModel>
  </diagram>
</mxfile>
